<?xml version="1.0" encoding="UTF-8" standalone="no"?>
<!-- Created with Inkscape (http://www.inkscape.org/) -->

<svg
   width="512"
   height="512"
   viewBox="0 0 135.46666 135.46667"
   version="1.1"
   id="svg1"
   xml:space="preserve"
   inkscape:version="1.3.2 (091e20e, 2023-11-25, custom)"
   sodipodi:docname="icon_male.svg"
   xmlns:inkscape="http://www.inkscape.org/namespaces/inkscape"
   xmlns:sodipodi="http://sodipodi.sourceforge.net/DTD/sodipodi-0.dtd"
   xmlns="http://www.w3.org/2000/svg"
   xmlns:svg="http://www.w3.org/2000/svg"><sodipodi:namedview
     id="namedview1"
     pagecolor="#ffffff"
     bordercolor="#000000"
     borderopacity="0.25"
     inkscape:showpageshadow="2"
     inkscape:pageopacity="0.0"
     inkscape:pagecheckerboard="0"
     inkscape:deskcolor="#d1d1d1"
     inkscape:document-units="mm"
     inkscape:zoom="0.63874158"
     inkscape:cx="396.87411"
     inkscape:cy="561.25984"
     inkscape:window-width="2880"
     inkscape:window-height="1514"
     inkscape:window-x="-11"
     inkscape:window-y="-11"
     inkscape:window-maximized="1"
     inkscape:current-layer="layer1" /><defs
     id="defs1" /><g
     inkscape:label="Camada 1"
     inkscape:groupmode="layer"
     id="layer1"><path
       style="fill:#FFFFFF;stroke-width:0.937746"
       d="m 24.466473,135.08242 c -7.964628,-1.92641 -4.844124,-11.18445 -3.804421,-16.77656 1.745233,-8.29305 2.885698,-16.78764 5.461259,-24.858631 3.370456,-6.828061 11.689875,-7.305392 18.087605,-9.593157 3.262244,-0.968497 6.676812,-1.611109 9.30959,-3.926284 2.333341,-0.695745 2.219464,-2.702145 2.067319,-4.72904 -8.398151,-4.680845 -13.963591,-13.823586 -14.144676,-23.470666 -4.64409,-1.185617 -8.913671,-5.870296 -6.993114,-10.90528 1.746745,-2.176543 2.491991,-4.446675 2.088933,-7.236973 0.424909,-4.329769 -1.149555,-9.780996 1.950555,-13.139749 5.190296,1.771647 0.551578,10.296667 2.193247,14.868415 3.619504,-3.553277 9.733776,-2.656905 14.645542,-3.910352 8.18065,-1.39218 15.926609,-4.470939 23.854311,-6.752344 5.380751,-0.11755 9.012403,5.017394 13.094908,7.852565 1.761717,3.516492 3.745363,3.427146 3.00731,-0.387858 C 94.958338,26.354308 96.328796,20.119651 93.524252,14.839495 90.845381,10.061199 85.01404,8.5714137 79.930871,9.5428802 71.769549,2.7351317 59.174847,2.0540908 50.534197,8.3686738 47.239522,9.4122378 43.251547,19.317332 40.829701,13.458836 47.659635,0.48522982 66.032827,-3.7956115 78.387266,3.7529317 c 4.71496,3.0809628 11.704819,0.63668 15.746212,5.6639858 3.565891,3.3075275 5.516934,8.1677675 5.007114,13.0009665 0.233083,5.336917 -0.367723,10.829389 0.641129,16.041454 4.127779,4.38656 0.665869,11.815123 -4.8836,12.835667 -1.833087,5.22726 -1.919479,12.083771 -6.296319,16.572636 -1.515958,4.170545 -8.303351,4.909302 -8.661901,8.982371 -0.612903,2.360128 2.375875,2.827149 3.728287,4.154272 2.977924,2.100425 6.841876,2.334042 10.211913,3.608308 6.178929,1.894719 14.105819,3.293847 16.192469,10.48246 2.3791,10.866278 4.8128,21.767008 6.3255,32.788388 0.59017,7.97685 -8.64723,7.75151 -14.21325,7.44471 -15.062919,0.0734 -30.126052,0.0921 -45.189072,0.13851 -4.401854,-5.56862 6.881201,-3.68499 10.101714,-3.97773 9.124584,-0.008 18.249173,-0.003 27.373759,-0.004 0.05033,-6.54385 0.100667,-13.08769 0.151,-19.63154 5.708169,-3.29632 3.406577,6.83515 3.83747,10.00739 0,3.20805 0,6.4161 0,9.62415 4.322249,-0.25954 8.918189,0.65399 13.019899,-0.79833 2.47166,-5.05922 -1.05941,-11.18468 -1.43526,-16.65278 -1.52193,-6.43395 -2.09093,-13.19372 -4.53285,-19.354976 -3.04316,-4.984553 -9.654325,-4.827307 -14.53775,-6.823956 -2.484548,-0.459817 -6.158004,-3.20672 -6.268863,0.957647 -1.683293,4.238602 -2.304363,10.315071 -7.849687,10.787062 -3.905221,4.077793 -10.202324,9.383083 -14.760746,2.880133 C 58.015115,98.674244 52.044157,97.832992 51.65281,91.035158 50.653678,89.776012 51.031196,85.843584 49.015437,86.5586 c -5.515416,1.833582 -11.445648,2.770836 -16.605206,5.462697 -4.675525,3.698544 -4.090898,10.387273 -5.658474,15.626723 -1.20067,7.14809 -3.33768,14.25618 -3.675388,21.48329 2.120793,3.88227 7.570101,1.8578 11.353224,2.34662 2.982749,0.90361 2.810928,-1.38014 2.640221,-3.66277 0.04091,-5.32061 0.08183,-10.64123 0.122741,-15.96184 5.755158,-3.36112 3.372307,7.04495 3.837466,10.25622 0,3.12511 0,6.25021 0,9.37532 2.874755,0.33373 6.454564,-0.87314 8.799093,0.99941 -0.264351,5.63538 -9.808976,1.76072 -13.818216,2.96072 -3.845432,-0.0683 -7.720413,0.02 -11.544425,-0.36257 z M 70.929531,99.446382 c 4.629256,-1.77748 1.42509,-5.077419 -1.971094,-4.213426 -3.452672,-0.787035 -10.002693,1.099284 -4.355349,4.199905 2.619392,2.857429 3.655009,2.799049 6.326443,0.01352 z m -11.628523,-5.68074 c 3.64029,-2.243551 -2.112359,-6.976994 -2.238143,-10.23833 -1.978136,-2.445625 -4.672252,3.621186 -1.875694,5.623963 1.246978,1.522212 1.241196,8.159535 4.113837,4.614367 z m 19.259913,0.46933 c 0.355976,-3.710504 6.433724,-10.084515 0.23497,-11.37264 -0.887179,3.561656 -7.406115,12.222648 -0.23497,11.37264 z m -5.06178,-8.93204 c 1.476537,-3.094758 5.02458,-10.756279 -1.626308,-7.434669 -3.706828,1.74727 -10.290048,-2.023828 -12.315215,0.221339 2.316505,4.133096 2.035436,13.805052 8.259993,13.11003 2.395602,0.41515 4.010981,-0.314471 4.400236,-2.843107 0.427098,-1.017865 0.854196,-2.035729 1.281294,-3.053593 z m -1.05297,-11.66405 C 83.260357,71.697301 91.1105,60.813411 90.081594,49.970818 89.23998,44.803572 92.103522,37.919914 88.012847,34.039093 83.795385,29.18877 78.192737,27.202742 72.524449,30.939807 c -8.734717,2.988507 -17.809206,4.94226 -26.993434,5.809409 0.262594,7.004763 -0.733841,14.160647 0.870716,21.029909 2.644695,9.677857 12.298822,17.323819 22.529829,16.218381 1.176531,-0.04979 2.357277,-0.129104 3.514611,-0.358624 z M 41.561221,43.355453 c 1.280319,-4.589381 -2.425647,-4.557989 -3.557229,-0.441495 -0.224827,3.525122 5.012135,7.355226 3.557229,0.441495 z m 54.43002,3.105338 c 5.211969,-1.907973 -3.050062,-10.903424 -1.76409,-4.394832 0.309942,1.396295 -1.070756,7.075447 1.76409,4.394832 z"
       id="path1" /></g></svg>
