<?xml version="1.0" encoding="UTF-8" standalone="no"?>
<!-- Created with Inkscape (http://www.inkscape.org/) -->

<svg
   width="512"
   height="512"
   viewBox="0 0 135.46666 135.46667"
   version="1.1"
   id="svg1"
   xml:space="preserve"
   inkscape:version="1.3.2 (091e20e, 2023-11-25, custom)"
   sodipodi:docname="icon_admin.svg"
   xmlns:inkscape="http://www.inkscape.org/namespaces/inkscape"
   xmlns:sodipodi="http://sodipodi.sourceforge.net/DTD/sodipodi-0.dtd"
   xmlns="http://www.w3.org/2000/svg"
   xmlns:svg="http://www.w3.org/2000/svg"><sodipodi:namedview
     id="namedview1"
     pagecolor="#ffffff"
     bordercolor="#000000"
     borderopacity="0.25"
     inkscape:showpageshadow="2"
     inkscape:pageopacity="0.0"
     inkscape:pagecheckerboard="0"
     inkscape:deskcolor="#d1d1d1"
     inkscape:document-units="mm"
     inkscape:zoom="0.65834035"
     inkscape:cx="397.21096"
     inkscape:cy="561.25984"
     inkscape:window-width="1995"
     inkscape:window-height="1266"
     inkscape:window-x="501"
     inkscape:window-y="324"
     inkscape:window-maximized="0"
     inkscape:current-layer="layer1" /><defs
     id="defs1" /><g
     inkscape:label="Camada 1"
     inkscape:groupmode="layer"
     id="layer1"><path
       style="fill:#000000;stroke-width:1.11782"
       d="m 99.879351,134.79352 c -1.83287,-1.23517 -2.19156,-2.26259 -2.30575,-6.60474 l -0.10184,-3.87 -1.49856,-0.38408 c -0.8242,-0.21123 -2.47079,-0.87268 -3.65909,-1.46987 l -2.16052,-1.08582 -2.44027,2.45301 c -1.34216,1.34916 -2.86405,2.65411 -3.38201,2.89989 -2.06933,0.98197 -4.65993,0.26567 -5.98004,-1.65347 -0.5867,-0.85296 -0.67403,-1.28625 -0.57693,-2.86235 l 0.11442,-1.85725 2.77638,-2.78797 2.77638,-2.78797 -1.22048,-2.60082 c -0.67127,-1.43046 -1.36669,-3.16647 -1.54538,-3.8578 l -0.32492,-1.25696 h -3.84812 c -4.17772,0 -5.03393,-0.23073 -6.15769,-1.65936 -1.62254,-2.06273 -1.39256,-4.67079 0.56807,-6.442089 0.64958,-0.58685 1.21394,-1.08325 1.25415,-1.10309 0.0402,-0.0199 1.91602,-0.11968 4.1685,-0.22183 l 4.09542,-0.18573 0.66031,-2.08569 c 0.36317,-1.14713 1.04013,-2.78356 1.50436,-3.63651 l 0.84407,-1.55082 -2.53564,-2.57439 c -2.95821,-3.00341 -3.1928,-3.39232 -3.19133,-5.29069 0.002,-2.66473 1.8639,-4.52656 4.52863,-4.52863 1.89981,-10e-4 2.2864,0.23224 5.3087,3.20927 l 2.59239,2.55355 1.53425,-0.86243 c 0.84383,-0.47435 2.47216,-1.15939 3.6185,-1.52231 l 2.08425,-0.65985 0.18574,-4.09542 c 0.10217,-2.25247 0.20197,-4.1283 0.22181,-4.1685 0.0199,-0.0402 0.51624,-0.60456 1.10311,-1.25415 1.771299,-1.96062 4.379359,-2.1906 6.442079,-0.56806 1.42794,1.12322 1.65937,1.98066 1.65937,6.1481 v 3.83853 l 1.70059,0.49438 c 0.93534,0.27191 2.66952,0.97347 3.85374,1.55902 l 2.15312,1.06464 2.79203,-2.78042 2.79204,-2.78042 1.85724,-0.11443 c 1.57611,-0.0971 2.0094,-0.0101 2.86235,0.57695 1.91915,1.32009 2.63545,3.91069 1.65348,5.98004 -0.24579,0.51794 -1.55074,2.03984 -2.89989,3.38199 l -2.45301,2.44027 1.0858,2.16052 c 0.59721,1.18831 1.25865,2.83489 1.46989,3.6591 l 0.38406,1.49855 3.87001,0.10173 c 4.34215,0.11421 5.36958,0.47288 6.60475,2.30575 1.26972,1.884139 0.67661,4.953079 -1.21849,6.304869 -0.81799,0.58348 -1.39528,0.6767 -5.00072,0.8075 l -4.07598,0.14788 -0.83546,2.41544 c -0.4595,1.3285 -1.17961,3.00272 -1.60026,3.72048 l -0.7648,1.30505 2.5283,2.49041 c 2.70981,2.6692 3.35268,3.73198 3.35268,5.54262 0,2.18857 -2.30103,4.48959 -4.4896,4.48959 -1.81063,0 -2.87342,-0.64286 -5.54263,-3.35268 l -2.4904,-2.5283 -1.30505,0.7648 c -0.71777,0.42065 -2.39199,1.14078 -3.72047,1.60028 l -2.41545,0.83546 -0.14787,4.07596 c -0.13081,3.60545 -0.22403,4.18274 -0.80751,5.00073 -1.35179,1.8951 -4.42074,2.48821 -6.304869,1.21849 z m 8.054899,-20.70131 c 5.84902,-2.89075 8.66711,-9.34761 6.78466,-15.545169 -1.19765,-3.94298 -4.66075,-7.38814 -8.5783,-8.53384 -1.96223,-0.57387 -5.68949,-0.62253 -7.316229,-0.0955 -4.94452,1.60187 -8.40511,5.50144 -9.31261,10.493949 -1.07535,5.9159 2.71372,12.22445 8.57127,14.27057 1.63077,0.56965 2.433989,0.66876 4.801259,0.59245 2.58531,-0.0834 3.04283,-0.19049 5.04995,-1.18246 z M 7.1145651,128.69836 c -2.926267,-1.01112 -5.037216,-2.94959 -6.379742,-5.85847 -0.630239,-1.36558 -0.659224,-1.77935 -0.659224,-9.4138 v -7.98544 l 0.920269,-2.57128 c 2.568239,-7.175909 9.1762399,-13.777559 18.5864179,-18.568569 10.746399,-5.47133 25.518888,-8.91463 40.246385,-9.38098 6.56852,-0.20801 7.32247,-0.0218 8.57686,2.1187 1.48726,2.5378 0.68978,5.26982 -1.92362,6.59006 -1.14596,0.57893 -1.78021,0.66625 -4.8776,0.67152 -7.246011,0.0123 -17.227955,1.39771 -24.60049,3.4142 -12.884253,3.52401 -23.112118,9.9391 -26.448122,16.588689 l -1.0158759,2.02493 v 6.65454 6.65452 l 28.0969079,0.14788 c 27.67492,0.14566 28.11243,0.15701 29.13105,0.75539 3.14289,1.84628 3.14279,6.316 -1.9e-4,8.08245 -1.11409,0.62616 -1.12492,0.62639 -29.614765,0.61673 -26.643483,-0.009 -28.6004749,-0.0443 -30.0382609,-0.54107 z M 58.557049,68.785991 C 43.598497,65.946151 32.465881,54.491561 30.226402,39.635981 27.673255,22.699668 38.270448,6.1298906 54.700218,1.3687316 c 7.561823,-2.191332 15.989953,-1.735876 23.213763,1.254464 8.52141,3.527475 15.68278,10.9565494 18.96638,19.6753664 3.00006,7.965975 3.00006,16.650689 0,24.616659 -3.29084,8.73801 -10.60457,16.28038 -19.16857,19.76781 -4.17786,1.7013 -7.18596,2.29066 -12.27392,2.40477 -3.20454,0.0719 -5.425732,-0.0256 -6.880822,-0.30181 z m 12.893162,-9.9035 c 6.6527,-1.93373 12.47898,-6.77149 15.52259,-12.88896 2.25559,-4.53359 3.17699,-9.553011 2.59241,-14.122396 -1.67002,-13.053748 -12.11355,-22.4185324 -24.97859,-22.3984444 -3.792366,0.0056 -6.292763,0.466243 -9.492941,1.7476564 -5.965545,2.388719 -10.712429,6.904649 -13.434581,12.780926 -1.478071,3.190708 -2.090145,5.629671 -2.306178,9.18954 -0.74487,12.274578 7.635561,23.326388 19.797578,26.108298 2.763682,0.63217 9.473452,0.40489 12.299712,-0.41662 z"
       id="path1" /></g></svg>
