<?xml version="1.0" encoding="UTF-8" standalone="no"?>
<!-- Created with Inkscape (http://www.inkscape.org/) -->

<svg
   width="512"
   height="512"
   viewBox="0 0 135.46666 135.46667"
   version="1.1"
   id="svg1"
   xml:space="preserve"
   inkscape:version="1.3.2 (091e20e, 2023-11-25, custom)"
   sodipodi:docname="icon_female.svg"
   xmlns:inkscape="http://www.inkscape.org/namespaces/inkscape"
   xmlns:sodipodi="http://sodipodi.sourceforge.net/DTD/sodipodi-0.dtd"
   xmlns="http://www.w3.org/2000/svg"
   xmlns:svg="http://www.w3.org/2000/svg"><sodipodi:namedview
     id="namedview1"
     pagecolor="#ffffff"
     bordercolor="#000000"
     borderopacity="0.25"
     inkscape:showpageshadow="2"
     inkscape:pageopacity="0.0"
     inkscape:pagecheckerboard="0"
     inkscape:deskcolor="#d1d1d1"
     inkscape:document-units="mm"
     inkscape:zoom="0.63874158"
     inkscape:cx="396.09133"
     inkscape:cy="561.25984"
     inkscape:window-width="1995"
     inkscape:window-height="1266"
     inkscape:window-x="371"
     inkscape:window-y="146"
     inkscape:window-maximized="0"
     inkscape:current-layer="layer1" /><defs
     id="defs1" /><g
     inkscape:label="Camada 1"
     inkscape:groupmode="layer"
     id="layer1"><path
       style="fill:#FFFFFF;stroke-width:1.00013"
       d="m 22.813259,134.82733 c -1.548849,-1.37579 -0.370214,-3.99857 -0.730659,-5.91769 0.110121,-7.38379 -0.959977,-15.38553 3.729983,-21.72521 0.403299,-3.22949 7.600088,-5.23997 5.677529,-7.710438 C 20.360531,89.90864 17.328672,72.50614 24.672356,59.781388 28.398345,54.319453 30.817969,47.927691 30.324911,41.238008 30.689769,32.51874 29.549904,23.160611 34.522784,15.422352 40.090819,5.1895644 51.856522,-0.76047451 63.371829,0.02469228 c 9.252418,-0.0281916 19.259287,-0.87166042 27.313915,4.65882972 9.532576,5.835617 14.942136,17.139992 14.257466,28.202752 0.38296,7.963767 -0.88958,16.598093 3.88092,23.591333 7.67219,10.858257 8.16886,26.609838 0.0116,37.329013 -6.53032,2.312397 -1.71403,-6.259571 -0.27834,-8.848343 3.23679,-8.604093 1.73409,-18.69852 -3.5925,-26.169482 C 101.11988,52.898791 100.3217,45.827631 100.54997,38.96398 100.34702,31.456135 101.04432,23.367277 96.506855,16.859649 91.333473,7.8266042 80.522882,3.6001996 70.448277,4.5150173 62.660713,4.7082211 54.203821,3.6567606 47.412821,8.3706687 38.946404,13.407421 34.196796,23.384091 34.980335,33.12455 c -0.299108,8.470295 0.665516,17.582055 -4.163855,25.07912 -4.133682,5.878524 -6.291684,13.006855 -5.490584,20.206259 0.630692,7.910578 5.3467,14.995681 11.581423,19.699396 4.958622,-2.190223 11.345468,-0.244926 15.277875,-4.609551 2.46239,-2.587456 4.288018,-7.635163 -0.335195,-8.571756 -9.635918,-5.797488 -15.097756,-17.221377 -14.28238,-28.355664 -0.03037,-4.670063 -0.01143,-9.340282 -0.01675,-14.010419 6.055392,-4.288039 4.32602,6.499517 4.574399,9.978293 0.01436,6.72721 -0.46362,13.942023 3.507945,19.79642 4.890193,8.359316 14.70389,13.526361 24.387763,12.399689 13.202602,-0.640713 24.385764,-13.444636 23.239843,-26.651034 0.07008,-4.074002 0.11069,-8.14845 0.16637,-12.222668 -5.508667,-0.465379 -10.382466,-4.455559 -11.797964,-9.831186 -6.340804,3.210265 -12.703337,6.762 -19.668989,8.625329 -4.078399,0.349489 -12.722642,5.530489 -13.844737,-0.294523 4.267335,-3.37616 10.938598,-2.560832 15.938838,-5.09736 6.867902,-2.136536 12.840118,-6.233557 19.078914,-9.615013 4.055083,2.410318 2.654289,11.452356 9.7476,11.463909 3.747888,-0.82362 5.895069,1.652666 5.002768,5.077012 -0.203947,9.611583 1.262821,19.965309 -4.245574,28.480946 -5.639731,9.526738 -16.794375,15.73577 -27.932051,14.571751 -3.574721,-0.09123 -7.640808,-2.2376 -7.537939,3.090802 -2.307543,3.815785 -5.644485,6.800809 0.332742,9.151428 4.107821,2.07762 8.308762,9.91907 12.682783,4.45842 1.924903,-2.49417 9.161777,-6.505259 7.713749,-0.41926 -4.439559,2.32181 -9.398933,11.26838 -14.49851,6.175 -5.008145,-3.60662 -9.629391,-7.77655 -14.83775,-11.08656 -6.435364,0.32061 -13.567159,1.26068 -18.047166,6.49567 -4.463511,4.56968 -5.30384,11.09242 -4.984861,17.18787 -0.81281,2.87343 2.126957,13.31636 -3.715783,10.53046 z m 87.180011,0.22515 c -2.19196,-4.79444 -0.4529,-11.09505 -1.22535,-16.45448 -0.23843,-9.59071 -9.075396,-17.57625 -18.558151,-17.54075 -5.040557,-0.0677 -11.580877,-3.218216 -12.108264,-8.640658 4.144183,-4.229202 7.181572,6.372076 12.710674,4.167223 9.577161,0.326886 18.434281,6.789665 21.463921,15.916485 1.83979,6.92129 0.80142,14.21462 1.08688,21.31196 -0.14875,1.21726 -2.33859,2.14036 -3.36971,1.24022 z"
       id="path2" /></g></svg>
